<?xml version="1.0" standalone="no"?>
<!DOCTYPE svg PUBLIC "-//W3C//DTD SVG 20010904//EN"
 "http://www.w3.org/TR/2001/REC-SVG-20010904/DTD/svg10.dtd">
<svg version="1.0" xmlns="http://www.w3.org/2000/svg"
 width="200.000000pt" height="200.000000pt" viewBox="0 0 200.000000 200.000000"
 preserveAspectRatio="xMidYMid meet">

<g transform="translate(0.000000,200.000000) scale(0.100000,-0.100000)"
fill="#492c9d" stroke="none">
<path d="M990 1910 c0 -90 0 -90 -25 -90 -34 0 -100 34 -120 62 -8 13 -20 40
-26 61 -11 43 -29 49 -29 11 0 -69 65 -138 148 -159 l47 -12 0 -84 0 -84 -62
-3 c-35 -2 -63 -7 -63 -12 0 -5 28 -10 63 -12 l62 -3 0 -35 0 -35 -62 -3 c-35
-2 -63 -7 -63 -12 0 -5 28 -10 63 -12 l62 -3 0 -35 0 -35 -62 -3 c-35 -2 -63
-7 -63 -12 0 -5 28 -10 63 -12 l62 -3 3 -103 c2 -91 1 -103 -15 -108 -10 -3
-35 -13 -56 -22 l-38 -16 -72 72 -71 72 44 45 c29 30 41 48 34 55 -7 7 -23 -3
-49 -30 -44 -46 -55 -48 -80 -20 -18 20 -18 21 25 65 30 30 41 48 34 55 -7 7
-23 -3 -49 -30 -44 -46 -55 -48 -80 -20 -18 20 -18 21 25 65 30 30 41 48 34
55 -7 7 -23 -3 -49 -30 -21 -22 -44 -40 -50 -40 -6 0 -35 25 -65 55 l-54 54
27 49 c34 62 36 135 7 192 -19 38 -30 47 -42 35 -3 -3 6 -26 18 -52 13 -25 24
-54 24 -62 0 -31 -21 -90 -40 -113 l-19 -23 -65 64 c-36 36 -69 62 -73 58 -4
-4 22 -37 58 -73 l64 -65 -23 -19 c-23 -19 -82 -40 -113 -40 -8 0 -37 11 -62
24 -26 12 -49 21 -52 18 -12 -12 -3 -23 35 -42 57 -29 130 -27 192 7 l49 27
54 -54 c30 -30 55 -59 55 -65 0 -6 -18 -29 -40 -50 -27 -26 -37 -42 -30 -49 7
-7 25 4 55 34 44 43 45 43 65 25 28 -25 26 -36 -20 -80 -27 -26 -37 -42 -30
-49 7 -7 25 4 55 34 44 43 45 43 65 25 28 -25 26 -36 -20 -80 -27 -26 -37 -42
-30 -49 7 -7 25 5 55 34 l45 44 72 -71 72 -72 -16 -38 c-9 -21 -19 -46 -22
-56 -5 -16 -17 -17 -108 -15 l-103 3 -3 63 c-4 80 -20 80 -24 0 l-3 -63 -35 0
-35 0 -3 63 c-4 80 -20 80 -24 0 l-3 -63 -35 0 -35 0 -3 63 c-2 34 -7 62 -12
62 -5 0 -10 -28 -12 -62 l-3 -63 -84 0 -84 0 -12 47 c-21 83 -90 148 -159 148
-38 0 -32 -18 12 -29 20 -6 47 -18 60 -26 28 -20 62 -86 62 -120 0 -25 0 -25
-90 -25 -53 0 -90 -4 -90 -10 0 -6 37 -10 90 -10 90 0 90 0 90 -25 0 -34 -34
-100 -62 -120 -13 -8 -40 -20 -60 -26 -44 -11 -50 -29 -12 -29 69 0 138 65
159 148 l12 47 84 0 84 0 3 -62 c2 -35 7 -63 12 -63 5 0 10 28 12 63 l3 62 35
0 35 0 3 -62 c2 -35 7 -63 12 -63 5 0 10 28 12 63 l3 62 35 0 35 0 3 -62 c2
-35 7 -63 12 -63 5 0 10 28 12 63 l3 62 104 0 103 0 20 -54 20 -53 -71 -71
-71 -71 -45 44 c-30 29 -48 41 -55 34 -7 -7 3 -23 30 -49 46 -44 48 -55 20
-80 -20 -18 -21 -18 -65 25 -30 30 -48 41 -55 34 -7 -7 3 -23 30 -49 46 -44
48 -55 20 -80 -20 -18 -21 -18 -65 25 -30 30 -48 41 -55 34 -7 -7 3 -23 30
-49 22 -21 40 -44 40 -50 0 -6 -25 -35 -55 -65 l-54 -54 -49 27 c-62 34 -135
36 -192 7 -38 -19 -47 -30 -35 -42 3 -3 26 6 52 18 25 13 54 24 62 24 31 0 90
-21 113 -40 l23 -19 -64 -65 c-36 -36 -62 -69 -58 -73 4 -4 37 22 73 58 l65
64 19 -23 c44 -53 46 -141 6 -198 -15 -20 -12 -34 5 -34 5 0 18 18 29 40 29
57 27 130 -7 192 l-27 49 54 54 c30 30 59 55 65 55 6 0 29 -18 50 -40 26 -27
42 -37 49 -30 7 7 -4 25 -34 55 -43 44 -43 45 -25 65 25 28 36 26 80 -20 26
-27 42 -37 49 -30 7 7 -4 25 -34 55 -43 44 -43 45 -25 65 25 28 36 26 80 -20
26 -27 42 -37 49 -30 7 7 -5 25 -34 55 l-44 45 71 71 71 71 53 -20 54 -20 0
-103 0 -104 -62 -3 c-35 -2 -63 -7 -63 -12 0 -5 28 -10 63 -12 l62 -3 0 -35 0
-35 -62 -3 c-35 -2 -63 -7 -63 -12 0 -5 28 -10 63 -12 l62 -3 0 -35 0 -35 -62
-3 c-35 -2 -63 -7 -63 -12 0 -5 28 -10 63 -12 l62 -3 0 -84 0 -84 -47 -12
c-83 -21 -148 -90 -148 -159 0 -38 18 -32 29 12 6 20 18 47 26 60 20 28 86 62
120 62 25 0 25 0 25 -90 0 -53 4 -90 10 -90 6 0 10 37 10 90 0 90 0 90 25 90
34 0 100 -34 120 -62 8 -13 20 -40 26 -60 11 -44 29 -50 29 -12 0 69 -65 138
-148 159 l-47 12 0 84 0 84 63 3 c34 2 62 7 62 12 0 5 -28 10 -62 12 l-63 3 0
35 0 35 63 3 c34 2 62 7 62 12 0 5 -28 10 -62 12 l-63 3 0 35 0 35 63 3 c34 2
62 7 62 12 0 5 -28 10 -62 12 l-63 3 0 104 0 103 54 20 53 20 71 -71 71 -71
-44 -45 c-29 -30 -41 -48 -34 -55 7 -7 23 3 49 30 44 46 55 48 80 20 18 -20
18 -21 -25 -65 -30 -30 -41 -48 -34 -55 7 -7 23 3 49 30 44 46 55 48 80 20 18
-20 18 -21 -25 -65 -30 -30 -41 -48 -34 -55 7 -7 23 3 49 30 21 22 44 40 50
40 6 0 35 -25 65 -55 l54 -54 -27 -49 c-34 -62 -36 -135 -7 -192 19 -38 30
-47 42 -35 3 3 -6 26 -18 52 -13 25 -24 54 -24 62 0 31 21 90 40 113 l19 23
65 -64 c36 -36 69 -62 73 -58 4 4 -22 37 -58 73 l-64 65 23 19 c23 19 82 40
113 40 8 0 37 -11 62 -24 26 -12 49 -21 52 -18 12 12 3 23 -35 42 -57 29 -130
27 -192 -7 l-49 -27 -54 54 c-30 30 -55 59 -55 65 0 6 18 29 40 50 27 26 37
42 30 49 -7 7 -25 -4 -55 -34 -44 -43 -45 -43 -65 -25 -28 25 -26 36 20 80 27
26 37 42 30 49 -7 7 -25 -4 -55 -34 -44 -43 -45 -43 -65 -25 -28 25 -26 36 20
80 27 26 37 42 30 49 -7 7 -25 -5 -55 -34 l-45 -44 -71 71 -71 71 20 53 20 54
103 0 104 0 3 -62 c4 -81 20 -81 24 0 l3 62 35 0 35 0 3 -62 c2 -35 7 -63 12
-63 5 0 10 28 12 63 l3 62 35 0 35 0 3 -62 c2 -35 7 -63 12 -63 5 0 10 28 12
63 l3 62 84 0 84 0 12 -47 c21 -83 90 -148 159 -148 38 0 32 18 -11 29 -21 6
-48 18 -61 26 -28 20 -62 86 -62 120 0 25 0 25 90 25 53 0 90 4 90 10 0 6 -37
10 -90 10 -90 0 -90 0 -90 25 0 34 34 100 62 120 13 8 40 20 61 26 43 11 49
29 11 29 -69 0 -138 -65 -159 -148 l-12 -47 -84 0 -84 0 -3 63 c-4 80 -20 80
-24 0 l-3 -63 -35 0 -35 0 -3 63 c-2 34 -7 62 -12 62 -5 0 -10 -28 -12 -62
l-3 -63 -35 0 -35 0 -3 63 c-2 34 -7 62 -12 62 -5 0 -10 -28 -12 -62 l-3 -63
-104 0 -103 0 -20 54 -20 53 71 71 71 71 45 -44 c30 -29 48 -41 55 -34 7 7 -3
23 -30 49 -46 44 -48 55 -20 80 20 18 21 18 65 -25 30 -30 48 -41 55 -34 7 7
-3 23 -30 49 -46 44 -48 55 -20 80 20 18 21 18 65 -25 30 -30 48 -41 55 -34 7
7 -3 23 -30 49 -22 21 -40 44 -40 50 0 6 25 35 55 65 l54 54 49 -27 c62 -34
135 -36 192 -7 22 11 40 24 40 29 0 17 -14 20 -34 5 -57 -40 -145 -38 -198 6
l-23 19 64 65 c36 36 62 69 58 73 -4 4 -37 -22 -73 -58 l-65 -64 -19 23 c-19
23 -40 82 -40 113 0 8 11 37 24 62 12 26 21 49 18 52 -12 12 -23 3 -42 -35
-29 -57 -27 -130 7 -192 l27 -49 -54 -54 c-30 -30 -59 -55 -65 -55 -6 0 -29
18 -50 40 -26 27 -42 37 -49 30 -7 -7 4 -25 34 -55 43 -44 43 -45 25 -65 -25
-28 -36 -26 -80 20 -26 27 -42 37 -49 30 -7 -7 4 -25 34 -55 43 -44 43 -45 25
-65 -25 -28 -36 -26 -80 20 -26 27 -42 37 -49 30 -7 -7 5 -25 34 -55 l44 -45
-71 -71 -71 -71 -53 20 -54 20 0 103 0 104 63 3 c34 2 62 7 62 12 0 5 -28 10
-62 12 l-63 3 0 35 0 35 63 3 c34 2 62 7 62 12 0 5 -28 10 -62 12 l-63 3 0 35
0 35 63 3 c34 2 62 7 62 12 0 5 -28 10 -62 12 l-63 3 0 84 0 84 47 12 c83 21
148 90 148 159 0 38 -18 32 -29 -11 -6 -21 -18 -48 -26 -61 -20 -28 -86 -62
-120 -62 -25 0 -25 0 -25 90 0 53 -4 90 -10 90 -6 0 -10 -37 -10 -90z m0 -820
c0 -27 -4 -50 -8 -50 -4 0 -24 16 -43 36 -33 34 -33 36 -15 50 11 8 30 14 43
14 21 0 23 -4 23 -50z m86 36 c18 -14 18 -16 -15 -50 -19 -20 -39 -36 -43 -36
-4 0 -8 23 -8 50 0 46 2 50 23 50 13 0 32 -6 43 -14z m-149 -68 c18 -18 33
-36 33 -40 0 -4 -22 -8 -50 -8 -44 0 -50 3 -50 21 0 22 17 59 27 59 4 0 22
-14 40 -32z m199 15 c7 -10 14 -28 14 -40 0 -21 -5 -23 -50 -23 -27 0 -50 3
-50 7 0 8 61 73 68 73 3 0 11 -8 18 -17z m-166 -91 c0 -4 -16 -24 -36 -43 -34
-33 -36 -33 -50 -15 -8 11 -14 30 -14 43 0 21 4 23 50 23 28 0 50 -4 50 -8z
m180 -14 c0 -13 -7 -32 -15 -42 -15 -19 -16 -19 -50 14 -19 19 -35 38 -35 42
0 4 23 8 50 8 45 0 50 -2 50 -22z m-150 -58 c0 -45 -2 -50 -22 -50 -13 0 -32
7 -42 15 -19 15 -19 16 14 50 19 19 38 35 42 35 4 0 8 -22 8 -50z m70 15 c33
-34 33 -35 14 -50 -10 -8 -29 -15 -41 -15 -21 0 -23 5 -23 50 0 28 4 50 8 50
4 0 23 -16 42 -35z"/>
</g>
</svg>
