<?xml version="1.0" standalone="no"?>
<!DOCTYPE svg PUBLIC "-//W3C//DTD SVG 20010904//EN"
 "http://www.w3.org/TR/2001/REC-SVG-20010904/DTD/svg10.dtd">
<svg version="1.0" xmlns="http://www.w3.org/2000/svg"
 width="200.000000pt" height="200.000000pt" viewBox="0 0 200.000000 200.000000"
 preserveAspectRatio="xMidYMid meet">

<g transform="translate(0.000000,200.000000) scale(0.100000,-0.100000)"
fill="#5434ae" stroke="none">
<path d="M973 1920 c-60 -33 -73 -46 -73 -68 0 -13 -4 -20 -10 -17 -5 3 -10
-1 -10 -9 0 -9 -4 -16 -9 -16 -6 0 -6 -12 -1 -30 5 -16 6 -30 2 -30 -4 0 0 -5
8 -10 11 -7 11 -10 2 -10 -14 0 -7 -11 38 -58 14 -14 18 -22 10 -17 -9 5 -12
5 -7 -1 5 -5 12 -9 16 -9 4 0 15 -8 25 -17 10 -10 26 -18 37 -18 18 0 19 -9
19 -219 l0 -218 -52 -26 -52 -26 -233 232 -233 231 40 41 c38 39 51 77 30 90
-5 3 -10 15 -10 26 0 27 -28 35 -48 14 -16 -16 -16 -18 2 -28 10 -7 28 -19 39
-28 21 -17 21 -17 -21 -59 -35 -35 -45 -40 -57 -30 -8 7 -15 20 -15 30 0 23
-26 44 -46 36 -23 -9 -13 -37 20 -56 41 -22 41 -31 2 -69 -30 -29 -38 -32 -51
-21 -8 7 -15 23 -15 36 0 31 -18 40 -35 18 -19 -26 -16 -31 32 -60 l42 -25 39
35 38 35 235 -232 235 -232 -15 -47 -16 -48 -242 0 -242 0 -7 35 c-3 19 -10
35 -16 35 -5 0 -6 5 -3 10 3 6 -2 13 -12 17 -10 4 -22 13 -28 20 -5 7 -37 21
-70 31 -56 17 -63 17 -105 2 -32 -12 -50 -26 -62 -50 -21 -41 -33 -113 -23
-137 5 -10 9 -22 10 -28 8 -38 19 -56 32 -51 9 4 13 1 11 -6 -6 -16 70 -51 94
-44 10 2 18 -1 18 -7 0 -8 3 -9 8 -2 4 6 16 11 27 10 26 0 112 84 121 118 l6
27 243 0 243 0 22 -42 21 -43 -238 -232 -237 -233 -53 52 -53 52 -22 -21 c-13
-12 -35 -26 -51 -32 -15 -6 -27 -16 -27 -22 0 -8 4 -9 13 0 18 14 30 2 15 -16
-6 -7 -8 -16 -5 -19 3 -3 17 12 31 34 14 22 30 44 37 47 6 5 30 -12 57 -38
l46 -46 -29 -31 c-16 -16 -34 -30 -41 -30 -22 0 -27 -21 -8 -35 20 -14 44 -4
44 20 0 7 10 24 21 39 l22 27 34 -33 c41 -40 40 -68 -4 -87 -35 -15 -41 -29
-21 -49 17 -17 26 -15 34 11 4 12 15 33 25 46 25 32 25 35 -17 81 l-36 39 174
168 c95 92 201 196 236 231 58 61 64 64 88 54 14 -7 34 -12 44 -12 19 0 20 -9
20 -250 0 -249 0 -250 -22 -250 -12 0 -41 -20 -70 -50 -45 -46 -48 -53 -46
-95 2 -25 6 -45 10 -45 4 0 5 -10 3 -22 -6 -28 22 -71 40 -64 8 3 21 -4 29
-16 8 -11 19 -17 25 -14 5 4 13 1 16 -4 9 -15 54 -9 85 10 33 21 83 44 92 42
7 -2 18 85 17 131 -1 15 -6 27 -11 27 -5 0 -6 5 -3 11 4 5 -2 18 -12 27 -11 9
-22 25 -26 35 -4 10 -11 15 -17 12 -5 -3 -10 -2 -10 4 0 5 -9 8 -20 6 -11 -2
-20 1 -20 7 0 7 -5 7 -14 -1 -23 -19 -26 8 -26 255 l0 234 27 11 c15 5 34 11
44 12 10 1 106 -84 243 -217 l226 -218 -35 -39 c-19 -22 -35 -42 -35 -45 0 -3
10 -19 23 -34 12 -15 27 -36 33 -46 11 -19 12 -19 33 1 21 18 21 20 5 32 -10
7 -25 13 -35 13 -9 0 -22 7 -29 15 -9 11 -6 21 16 50 31 42 43 41 66 -5 26
-51 35 -56 58 -35 24 22 19 31 -26 50 -47 20 -52 40 -18 76 36 38 50 37 75 -6
12 -19 26 -35 32 -35 7 0 7 4 -1 12 -19 19 -14 30 9 23 15 -5 20 -3 17 6 -3 8
-16 15 -31 17 -14 2 -31 10 -37 18 -19 21 -31 17 -72 -23 l-38 -37 -226 225
-225 225 21 37 c12 20 27 38 33 39 7 1 102 2 212 2 191 1 218 -3 223 -29 5
-23 58 -77 91 -94 119 -60 250 75 197 203 -8 19 -27 43 -43 52 -15 10 -31 22
-34 27 -6 9 -35 11 -97 8 -43 -1 -96 -54 -113 -111 l-13 -42 -215 4 -214 4
-14 55 -14 55 206 204 c113 113 209 206 213 208 4 1 23 -14 42 -33 39 -40 59
-44 85 -15 10 11 27 20 37 20 24 0 34 26 18 45 -19 23 -35 18 -45 -17 -15 -46
-38 -57 -71 -32 -44 32 -51 50 -30 73 11 12 29 21 40 21 12 0 28 4 36 10 12 7
12 12 0 34 -18 34 -32 33 -54 -6 -42 -74 -44 -74 -98 -21 -45 44 -47 48 -31
65 9 10 27 18 40 18 28 0 40 24 23 45 -18 22 -26 19 -49 -17 -11 -18 -26 -40
-33 -49 -10 -14 -5 -25 31 -68 33 -40 40 -54 32 -68 -5 -10 -97 -105 -205
-212 -155 -153 -199 -192 -213 -186 -10 4 -34 13 -53 20 l-35 13 -2 219 -2
218 49 23 c27 13 59 37 71 54 23 32 36 106 24 135 -5 10 -9 24 -11 32 -3 15
-48 61 -59 61 -4 0 -13 7 -22 15 -12 12 -18 13 -29 4 -9 -7 -14 -8 -14 -1 0
14 -45 10 -77 -8z m147 -48 c36 -37 48 -103 27 -154 -11 -26 -27 -41 -62 -58
-45 -22 -51 -22 -89 -9 -109 38 -117 189 -12 235 53 23 104 18 136 -14z m-630
-132 c0 -5 -4 -10 -10 -10 -5 0 -10 5 -10 10 0 6 5 10 10 10 6 0 10 -4 10 -10z
m1075 -20 c3 -5 -1 -10 -9 -10 -9 0 -16 5 -16 10 0 6 4 10 9 10 6 0 13 -4 16
-10z m-1177 -69 c3 -8 -1 -12 -9 -9 -7 2 -15 10 -17 17 -3 8 1 12 9 9 7 -2 15
-10 17 -17z m1292 -32 c0 -5 -7 -9 -15 -9 -15 0 -20 12 -9 23 8 8 24 -1 24
-14z m-1373 -65 c-9 -9 -28 6 -21 18 4 6 10 6 17 -1 6 -6 8 -13 4 -17z m1443
-24 c0 -5 -4 -10 -10 -10 -5 0 -10 5 -10 10 0 6 5 10 10 10 6 0 10 -4 10 -10z
m-652 -400 c48 -22 62 -48 62 -118 0 -134 -188 -176 -245 -55 -33 69 -2 147
70 179 41 18 63 17 113 -6z m-839 0 c19 -5 50 -24 68 -42 29 -28 33 -39 33
-81 0 -45 -4 -54 -44 -93 -50 -51 -84 -56 -153 -25 -48 22 -62 44 -69 109 -5
39 -2 53 18 82 38 56 79 70 147 50z m1602 -31 c54 -38 64 -91 29 -159 -54
-106 -209 -85 -240 31 -31 115 110 200 211 128z m-191 -729 c0 -5 -4 -10 -10
-10 -5 0 -10 5 -10 10 0 6 5 10 10 10 6 0 10 -4 10 -10z m-1290 -26 c0 -8 -4
-12 -10 -9 -5 3 -10 10 -10 16 0 5 5 9 10 9 6 0 10 -7 10 -16z m713 -5 c31 -8
42 -18 58 -52 10 -23 19 -62 19 -85 0 -36 -5 -49 -30 -72 -48 -45 -92 -56
-147 -35 -36 14 -49 26 -64 59 -27 59 -25 108 7 145 38 45 91 59 157 40z m502
-39 c-3 -5 -11 -10 -16 -10 -6 0 -7 5 -4 10 3 6 11 10 16 10 6 0 7 -4 4 -10z
m-1115 -30 c0 -5 -4 -10 -9 -10 -6 0 -13 5 -16 10 -3 6 1 10 9 10 9 0 16 -4
16 -10z"/>
<path d="M992 1865 c-66 -29 -76 -132 -17 -171 43 -28 88 -29 120 -1 26 22 29
31 30 83 0 55 -2 59 -34 81 -39 26 -53 28 -99 8z m104 -26 c22 -18 18 -105 -6
-129 -26 -26 -83 -27 -110 0 -41 41 -34 115 13 139 26 12 82 7 103 -10z"/>
<path d="M1010 1820 c-25 -25 -26 -62 -2 -83 35 -32 71 -19 86 30 5 17 1 29
-18 48 -30 30 -40 31 -66 5z m58 -21 c2 -12 -4 -15 -28 -11 -25 4 -28 7 -19
19 15 17 43 13 47 -8z m-20 -25 c30 -8 29 -34 -2 -34 -25 0 -51 22 -39 33 8 8
12 8 41 1z"/>
<path d="M1002 1113 c-12 -3 -34 -20 -48 -39 -33 -43 -28 -97 11 -131 57 -49
119 -41 149 20 41 84 -20 166 -112 150z m85 -39 c22 -22 25 -32 20 -72 -6 -53
-26 -73 -71 -70 l-31 1 32 4 c39 5 63 35 63 78 -1 44 -24 69 -65 69 -42 0 -73
-26 -78 -68 l-4 -31 -1 33 c-4 72 83 108 135 56z m-3 -35 c20 -59 -27 -110
-75 -80 -26 15 -34 14 -19 -4 20 -24 5 -18 -16 7 -10 12 -14 19 -8 15 6 -3 10
8 10 30 0 43 26 65 69 61 22 -2 32 -10 39 -29z"/>
<path d="M997 1043 c-12 -12 -7 -23 7 -17 8 3 16 -2 19 -13 4 -16 5 -16 6 -1
1 11 6 15 16 12 9 -4 15 0 15 10 0 11 -9 16 -28 16 -16 0 -32 -3 -35 -7z"/>
<path d="M185 1096 c-58 -25 -72 -104 -29 -155 22 -26 33 -31 71 -31 36 0 50
6 74 29 31 32 34 47 19 102 -8 27 -19 41 -44 53 -41 19 -52 19 -91 2z m106
-32 c29 -26 26 -99 -4 -119 -44 -28 -81 -29 -112 -2 -62 53 -17 156 63 143 19
-3 43 -13 53 -22z"/>
<path d="M202 1054 c-40 -28 -18 -104 30 -104 42 0 63 73 30 103 -23 21 -32
21 -60 1z m48 -13 c0 -13 -26 -32 -33 -24 -4 3 -7 2 -7 -4 0 -20 14 -23 32 -6
10 9 21 13 25 9 13 -13 -14 -41 -38 -41 -20 0 -24 5 -25 30 0 17 1 33 3 38 6
10 43 9 43 -2z"/>
<path d="M1723 1078 c-36 -40 -43 -62 -32 -101 21 -77 106 -102 160 -48 24 25
29 37 29 80 0 47 -3 53 -32 71 -45 27 -99 26 -125 -2z m111 -9 c42 -19 43 -91
1 -132 -25 -26 -90 -22 -109 5 -21 30 -20 96 1 120 18 20 69 24 107 7z"/>
<path d="M1748 1039 c-21 -12 -24 -59 -6 -77 31 -31 98 0 98 44 0 40 -50 58
-92 33z m72 -34 c0 -27 -30 -48 -54 -39 -10 4 -16 18 -16 35 0 26 3 29 35 29
31 0 35 -3 35 -25z"/>
<path d="M1765 1000 c-3 -5 3 -10 14 -10 12 0 21 5 21 10 0 6 -6 10 -14 10 -8
0 -18 -4 -21 -10z"/>
<path d="M977 282 c-20 -21 -27 -38 -27 -67 0 -58 39 -95 100 -95 92 0 133 92
71 159 -24 26 -37 31 -73 31 -35 0 -50 -6 -71 -28z m98 8 c27 0 55 -42 55 -81
0 -67 -79 -102 -133 -59 -34 27 -44 73 -22 106 18 27 52 45 73 38 8 -2 20 -4
27 -4z"/>
<path d="M1016 255 c-25 -25 -29 -54 -12 -80 19 -28 47 -32 70 -10 25 25 29
54 12 80 -19 28 -47 32 -70 10z m59 -16 c4 -6 -2 -13 -14 -16 -12 -3 -21 -10
-21 -15 0 -5 10 -6 21 -3 25 8 23 -12 -3 -28 -36 -23 -67 30 -36 61 15 15 45
16 53 1z"/>
</g>
</svg>
