<?xml version="1.0" standalone="no"?>
<!DOCTYPE svg PUBLIC "-//W3C//DTD SVG 20010904//EN"
 "http://www.w3.org/TR/2001/REC-SVG-20010904/DTD/svg10.dtd">
<svg version="1.0" xmlns="http://www.w3.org/2000/svg"
 width="200.000000pt" height="200.000000pt" viewBox="0 0 200.000000 200.000000"
 preserveAspectRatio="xMidYMid meet">

<g transform="translate(0.000000,200.000000) scale(0.100000,-0.100000)"
fill="#492c9d" stroke="none">
<path d="M835 1815 c-295 -55 -519 -290 -620 -652 -14 -49 -16 -88 -13 -190 4
-110 10 -142 38 -228 123 -378 325 -538 704 -561 192 -11 372 25 506 103 89
52 205 171 259 267 24 43 59 121 77 174 129 378 58 669 -217 886 -101 80 -240
163 -304 181 -59 17 -215 35 -300 34 -33 0 -91 -7 -130 -14z m257 -60 c4 -32
2 -35 -22 -35 -35 0 -48 11 -44 40 1 14 3 26 3 28 1 1 14 2 30 2 25 0 29 -4
33 -35z m-227 -17 c-12 -74 -45 -147 -106 -238 -48 -72 -75 -100 -153 -159
-52 -39 -127 -89 -168 -110 -69 -37 -177 -76 -185 -67 -7 7 72 201 110 269 43
76 121 165 182 207 90 62 244 129 318 139 5 1 6 -18 2 -41z m85 32 c0 -13 -20
-13 -40 0 -12 8 -9 10 13 10 15 0 27 -4 27 -10z m50 0 c0 -5 -4 -10 -9 -10 -6
0 -13 5 -16 10 -3 6 1 10 9 10 9 0 16 -4 16 -10z m189 -6 c2 -2 18 -48 36
-101 17 -54 48 -131 68 -170 21 -40 37 -75 37 -78 0 -4 -33 11 -72 33 -40 22
-99 50 -132 63 l-58 24 33 7 c19 4 46 5 61 2 22 -4 27 -2 23 9 -3 7 1 20 10
27 22 19 18 32 -6 19 -17 -9 -23 -8 -30 2 -7 11 -10 9 -15 -8 -6 -22 -12 -25
-66 -37 -26 -6 -28 -4 -28 22 0 25 6 31 43 42 23 7 52 12 64 11 17 -2 21 2 17
13 -4 9 -1 23 6 31 10 12 10 15 -2 15 -8 0 -19 -5 -26 -12 -9 -9 -12 -9 -12 0
0 7 -4 12 -10 12 -5 0 -10 -8 -10 -18 0 -21 -42 -48 -59 -38 -6 4 -11 20 -11
35 0 25 5 29 60 44 33 10 60 21 60 26 0 13 -27 21 -45 15 -10 -4 -15 0 -15 10
0 14 7 16 38 10 20 -4 39 -8 41 -10z m97 -34 c111 -38 147 -63 279 -195 145
-144 182 -201 208 -320 9 -38 14 -71 12 -73 -11 -11 -150 43 -206 80 -82 55
-204 170 -234 222 -45 77 -136 306 -122 306 2 0 30 -9 63 -20z m-318 0 c29 0
62 -34 62 -65 0 -33 -15 -32 -52 5 -34 35 -52 39 -43 10 4 -11 2 -20 -4 -20
-6 0 -11 -4 -11 -10 0 -5 8 -10 19 -10 10 0 35 -7 56 -16 33 -13 36 -18 30
-42 -8 -34 -11 -36 -30 -28 -9 3 -15 14 -14 23 3 31 -1 36 -16 23 -18 -15 -31
-7 -51 33 -9 18 -20 34 -24 37 -4 3 -3 20 2 39 8 28 13 32 31 27 12 -3 32 -6
45 -6z m-58 -131 c8 -13 5 -15 -18 -11 -24 5 -26 4 -13 -11 7 -10 26 -17 40
-17 15 0 35 -6 45 -13 16 -12 8 -17 -75 -48 -52 -19 -96 -35 -99 -37 -3 -1 15
41 40 93 47 100 49 101 80 44z m110 -239 c0 -134 -1 -140 -20 -140 -34 0 -96
-37 -129 -77 -20 -24 -35 -58 -43 -95 l-12 -58 -138 0 -138 0 0 23 c0 42 38
173 65 228 34 66 113 145 185 184 49 26 186 73 218 74 9 1 12 -33 12 -139z
m90 119 c219 -83 349 -210 394 -385 29 -111 38 -104 -128 -104 l-144 0 -12 50
c-16 67 -60 124 -120 158 l-50 27 0 138 c0 75 1 137 3 137 1 0 27 -9 57 -21z
m452 -306 c-2 -13 1 -30 7 -37 8 -10 7 -21 -4 -42 -8 -16 -15 -40 -16 -54 0
-14 -12 20 -25 75 -13 54 -31 109 -39 122 -24 36 -18 35 32 -3 37 -29 47 -42
45 -61z m-1026 -2 c-14 -32 -26 -66 -26 -74 0 -9 -4 -19 -10 -22 -6 -4 -10 11
-11 37 0 36 -2 39 -9 21 -6 -14 -15 -21 -24 -17 -11 4 -14 -2 -14 -25 1 -22 6
-31 18 -31 15 0 40 -37 40 -60 0 -6 -15 -10 -34 -10 -40 0 -46 11 -46 88 0 44
-3 53 -12 44 -7 -7 -21 -12 -31 -12 -17 0 -18 -2 -6 -16 11 -14 11 -18 -4 -29
-25 -18 -21 -28 8 -21 18 5 25 2 25 -8 0 -8 3 -21 6 -30 5 -13 -1 -16 -29 -16
-29 0 -37 5 -47 29 -17 43 -41 60 -77 57 -33 -2 -40 7 -25 32 5 7 42 22 83 33
41 11 113 39 159 63 47 23 87 38 89 33 2 -4 -9 -34 -23 -66z m559 6 c48 -27
80 -73 101 -145 16 -53 16 -56 -7 -104 -28 -59 -79 -108 -117 -109 -90 -4
-147 21 -192 83 -40 54 -46 82 -31 137 17 67 53 115 103 140 55 27 93 26 143
-2z m518 -4 c9 -9 -13 -34 -24 -27 -14 8 -11 34 4 34 8 0 17 -3 20 -7z m72
-33 c3 -5 -10 -24 -29 -41 -22 -19 -38 -43 -42 -65 -7 -40 -37 -44 -42 -5 -5
33 18 83 34 77 9 -3 14 2 14 13 0 10 3 21 7 24 10 11 51 8 58 -3z m55 -24 c0
-2 3 -11 6 -20 4 -11 -2 -19 -20 -26 -18 -6 -28 -20 -32 -40 -5 -25 -11 -30
-35 -30 -43 0 -38 35 11 82 34 32 70 49 70 34z m50 -10 c0 -11 -19 -15 -25 -6
-3 5 1 10 9 10 9 0 16 -2 16 -4z m10 -81 c0 -54 0 -55 -30 -55 -19 0 -30 5
-30 14 0 8 -7 16 -15 20 -39 14 5 64 45 51 14 -4 20 -2 20 9 0 9 2 16 5 16 3
0 5 -25 5 -55z m-1550 25 c0 -5 -7 -10 -15 -10 -8 0 -15 5 -15 10 0 6 7 10 15
10 8 0 15 -4 15 -10z m60 -39 c14 -34 5 -77 -13 -62 -7 5 -25 11 -42 13 -45 5
-47 43 -3 62 45 20 44 20 58 -13z m1318 -60 c16 -47 -16 -60 -36 -16 -17 36
-15 45 7 45 12 0 23 -11 29 -29z m90 13 c5 -9 7 -25 5 -35 -3 -11 0 -19 6 -19
6 0 11 5 11 12 0 9 3 9 12 0 18 -18 30 -14 23 7 -4 12 0 21 11 25 14 6 16 1
11 -35 -3 -23 -10 -45 -16 -48 -25 -16 -181 -65 -186 -59 -13 13 7 48 26 48
22 0 52 26 63 54 5 14 2 17 -9 12 -11 -4 -19 3 -25 20 -14 35 -14 34 25 34 21
0 37 -6 43 -16z m-1318 2 c0 -19 -14 -34 -28 -29 -11 5 -14 2 -9 -9 3 -9 -1
-24 -8 -35 -20 -26 -18 -31 10 -29 14 0 25 7 25 15 0 8 8 32 18 52 16 36 20
39 60 39 47 0 48 -1 27 -34 -12 -17 -22 -22 -38 -18 -20 5 -21 4 -8 -12 13
-15 11 -21 -17 -48 -29 -29 -32 -30 -62 -18 -17 7 -53 12 -80 11 -27 -1 -51 3
-55 9 -6 10 1 14 46 24 18 4 31 18 44 46 15 33 23 40 47 40 15 0 28 -2 28 -4z
m1181 -108 c-6 -16 -8 -35 -5 -43 4 -9 -1 -18 -12 -22 -11 -3 -31 -15 -46 -25
-37 -26 -39 -23 -19 25 10 23 26 73 36 111 l19 69 18 -43 c15 -34 16 -50 9
-72z m-742 64 c27 -53 83 -100 137 -114 l45 -12 -3 -136 -3 -135 -60 1 c-100
1 -199 64 -289 185 -43 57 -107 177 -121 227 l-6 22 140 0 141 0 19 -38z m681
25 c0 -20 -34 -117 -58 -162 -29 -57 -94 -128 -152 -165 -50 -32 -157 -73
-224 -85 l-36 -7 0 135 0 135 31 6 c47 9 87 43 120 102 l31 54 144 0 c114 0
144 -3 144 -13z m-1235 -27 c0 -9 -11 -16 -27 -18 -23 -3 -28 1 -28 18 0 17 5
21 28 18 16 -2 27 -9 27 -18z m270 -95 c20 -49 42 -96 48 -103 6 -8 -16 2 -49
22 -32 20 -74 44 -91 53 -39 20 -40 24 -13 48 18 16 20 16 20 2 0 -10 5 -17
10 -17 6 0 10 9 10 19 0 22 19 76 24 70 2 -2 20 -44 41 -94z m1225 6 c0 -20
-54 -159 -83 -214 -22 -41 -58 -84 -127 -146 -148 -135 -194 -165 -290 -194
-46 -14 -85 -25 -87 -23 -9 9 50 163 85 222 104 175 195 255 364 320 118 45
138 50 138 35z m-1449 -26 c103 -35 291 -129 334 -166 49 -43 150 -179 186
-250 16 -33 32 -79 36 -104 l6 -45 -44 0 c-84 0 -310 122 -401 217 -28 29
-208 348 -208 369 0 8 17 4 91 -21z m915 -349 c-38 -77 -54 -101 -63 -93 -7 5
-10 13 -7 18 3 5 -1 9 -8 9 -18 0 -68 23 -68 31 0 12 32 20 53 13 16 -5 19 -3
14 10 -4 9 -2 16 2 16 5 0 11 -6 14 -12 3 -8 9 -3 15 12 8 20 6 26 -7 28 -37
8 -28 20 31 44 35 14 66 27 69 27 3 1 -17 -46 -45 -103z m-418 80 c15 -8 49
-17 75 -21 56 -9 62 -25 10 -25 -34 -1 -36 -2 -21 -14 17 -12 17 -14 -2 -31
-11 -10 -21 -16 -23 -14 -6 9 -62 94 -70 106 -10 17 -2 16 31 -1z m192 -81 c0
-42 -1 -44 -37 -54 -46 -13 -103 -14 -103 -3 0 10 40 48 46 44 3 -1 16 11 30
28 14 16 34 30 45 30 16 0 19 -7 19 -45z m124 36 c4 -5 -10 -19 -29 -31 -19
-12 -35 -26 -35 -31 0 -5 -9 -9 -20 -9 -16 0 -20 7 -20 33 0 19 3 37 7 40 10
10 91 8 97 -2z m-39 -101 c22 -8 24 -13 15 -30 -22 -41 -93 -18 -76 25 6 17
24 19 61 5z m-75 -16 c0 -18 -66 -81 -92 -88 -13 -3 -22 3 -28 19 -16 41 -15
59 1 63 13 2 15 -3 12 -25 -4 -26 -3 -27 11 -9 8 10 19 15 25 11 7 -3 11 2 11
14 0 18 14 27 48 30 6 0 12 -6 12 -15z m143 -37 c12 -19 13 -30 4 -60 -11 -34
-15 -37 -47 -36 -21 1 -27 3 -14 6 19 4 21 9 17 43 -9 67 11 91 40 47z m-79
-23 c21 -20 20 -24 -9 -56 -18 -21 -33 -28 -60 -28 -19 0 -35 3 -35 8 0 4 -3
16 -6 28 -4 16 2 26 28 42 40 26 61 27 82 6z m-134 -64 c0 -22 -1 -23 -24 -14
-13 5 -14 9 -5 20 16 20 29 17 29 -6z"/>
<path d="M938 1108 c-43 -15 -31 -48 18 -48 20 0 17 20 -3 21 -12 0 -9 5 10
13 15 7 24 15 21 19 -9 8 -12 8 -46 -5z"/>
<path d="M1070 1101 c0 -12 59 -11 66 1 3 4 -11 8 -30 8 -20 0 -36 -4 -36 -9z"/>
<path d="M1080 1070 c0 -5 9 -10 20 -10 11 0 20 5 20 10 0 6 -9 10 -20 10 -11
0 -20 -4 -20 -10z"/>
<path d="M1027 1023 c-12 -11 -8 -23 8 -23 8 0 15 7 15 15 0 16 -12 20 -23 8z"/>
<path d="M1002 948 c19 -29 38 -33 63 -14 25 18 14 32 -13 17 -15 -8 -23 -7
-32 4 -20 24 -34 17 -18 -7z"/>
</g>
</svg>
